<svg id="Layer_1" data-name="Layer 1" xmlns="http://www.w3.org/2000/svg" viewBox="0 0 5000 5000"><defs><style>.cls-1{fill:#333;}</style></defs><path class="cls-1" d="M3512,3995.87H1488A507.24,507.24,0,0,1,980.5,3488.34V2945.88a154.11,154.11,0,0,1,308.22,0v542.46c0,109.9,89.41,199.32,199.31,199.32H3512c109.9,0,199.31-89.42,199.31-199.32V2945.88a154.11,154.11,0,0,1,308.22,0v542.46A507.24,507.24,0,0,1,3512,3995.87Z"/><path class="cls-1" d="M2500,3325a256.85,256.85,0,0,1-256.85-256.85V1261a256.85,256.85,0,0,1,513.7,0V3068.14A256.85,256.85,0,0,1,2500,3325Z"/><path class="cls-1" d="M2500,3325a256.85,256.85,0,0,1-181.62-75.23L1603.32,2534.7a256.85,256.85,0,0,1,363.24-363.23L2500,2704.91l533.44-533.44a256.85,256.85,0,0,1,363.24,363.23l-715.06,715.06A256.85,256.85,0,0,1,2500,3325Z"/></svg>