<svg id="Layer_1" data-name="Layer 1" xmlns="http://www.w3.org/2000/svg" viewBox="0 0 5000 5000"><defs><style>.cls-1{fill:#1a1a1a;}</style></defs><path class="cls-1" d="M4070.88,1243.89h-3119A109.38,109.38,0,0,0,842.5,1353.27v1970H4180.26v-1970A109.38,109.38,0,0,0,4070.88,1243.89Zm-74.5,1905.87h-2970V1417.38h2970Z"/><path class="cls-1" d="M3057.48,3449.84h0a130.2,130.2,0,0,1-130.2,130.2H2095.49a130.2,130.2,0,0,1-130.2-130.2H631.08c20.55,197.32,186.86,347.22,385.25,347.22H4006.44c198.38,0,364.7-149.9,385.25-347.22H3057.48Z"/><path class="cls-1" d="M2233.43,2810.22c8.7,22.66,41.13,21.56,48.28-1.64l254.8-499.88,499.89-254.8c23.2-7.15,24.3-39.58,1.63-48.28L1979.11,1709c-25.75-7.21-49.47,16.51-42.26,42.25Z"/><path class="cls-1" d="M3076.49,2667l-181.67,181.67a36.66,36.66,0,0,1-51.85,0l-530.31-530.3a36.66,36.66,0,0,1,0-51.85l181.67-181.67a36.66,36.66,0,0,1,51.85,0l530.31,530.3A36.68,36.68,0,0,1,3076.49,2667Z"/></svg>