<svg xmlns="http://www.w3.org/2000/svg" viewBox="0 0 997.33 68.06"><defs><style>.cls-1{fill:#f15a22;}</style></defs><g id="Group_-_Casual_Single" data-name="Group - Casual Single"><g id="Group_-_Casual_Single_Promo_" data-name="Group - Casual Single &quot;Promo&quot;"><path class="cls-1" d="M156.27,1.71,138.56,47.77c.09-1.06.14-2.13.14-3.19,0-10.47-6.94-15-15.95-17.66l-4.28-1.29c-2.92-.94-7.46-2.4-7.46-6.17,0-3.6,4.11-5.39,7.2-5.39a17.64,17.64,0,0,1,11.15,4.28l6.68-13A44.18,44.18,0,0,0,115.81,0c-8.06,0-14.72,3.33-18.6,9V1.71H39.6v34c0,8.41-.6,17.57-11.4,17.57S16.8,44.15,16.8,35.74v-34H0V38.06c0,8.31.34,16.54,6.77,22.8,5.4,5.32,13.89,7.2,21.43,7.2s16-1.88,21.43-7.2c6.43-6.26,6.77-14.49,6.77-22.8V16H66.52v50.4h16.8V16H94.2a24.53,24.53,0,0,0-.68,5.74c0,12.51,7,15.26,17.49,18.25,3.6,1,10.2,2.67,10.2,7.38,0,4.54-4.2,6.51-8.14,6.51-5.75,0-10.72-3-14.92-6.69L91,60.69a39.89,39.89,0,0,0,22.72,7.37c6.51,0,13.29-1.8,18.34-6.08a16.64,16.64,0,0,0,1.74-1.72l-2.34,6.09h17.83l4.46-11.23h23.15L181,66.35H199L174.61,1.71Zm2.06,40.54,6.94-20.56h.18l6.85,20.56Z"/><path class="cls-1" d="M203.85,58h0a4.36,4.36,0,1,0,0,8.71,4.36,4.36,0,1,0,0-8.71Zm0,7.8a3.46,3.46,0,0,1,0-6.92h0a3.35,3.35,0,0,1,3.34,3.46A3.31,3.31,0,0,1,203.85,65.78Z"/><path class="cls-1" d="M204.83,62.46V62.4a1.11,1.11,0,0,0,.9-1,1.17,1.17,0,0,0-.42-.92,2.43,2.43,0,0,0-1.51-.35,8.37,8.37,0,0,0-1.67.16v4.31h1V62.85h.48c.55,0,.81.21.89.69a3.18,3.18,0,0,0,.35,1h1.08a2.86,2.86,0,0,1-.31-1.06C205.49,62.93,205.25,62.59,204.83,62.46Zm-1.19-.32h-.48V60.89a2.35,2.35,0,0,1,.56,0c.64,0,.92.26.92.66S204.2,62.14,203.64,62.14Z"/><path class="cls-1" d="M250.06,4.24l24.27,62.12h-9.14l-6.78-18.71H232.13l-7,18.71h-8.44L240.92,4.24Zm5.74,36.45-10.36-29h-.17l-10.53,29Z"/><path class="cls-1" d="M303.86,29.21a11.19,11.19,0,0,0-7.48-2.35,13.75,13.75,0,0,0-6.7,1.48,11.93,11.93,0,0,0-4.3,3.91,16.56,16.56,0,0,0-2.31,5.61,30.9,30.9,0,0,0-.69,6.57,24.65,24.65,0,0,0,.74,6.09,16.32,16.32,0,0,0,2.3,5.27,11.64,11.64,0,0,0,4.09,3.69,12.21,12.21,0,0,0,6,1.4c3.66,0,6.51-1,8.57-2.88a13,13,0,0,0,3.79-8.09h7.57q-1.23,8.36-6.22,12.88T295.6,67.31a23.47,23.47,0,0,1-9.09-1.65A17.53,17.53,0,0,1,279.9,61a20.34,20.34,0,0,1-4-7.26,30.27,30.27,0,0,1-1.34-9.27,33,33,0,0,1,1.3-9.44,21.82,21.82,0,0,1,4-7.65,18.63,18.63,0,0,1,6.65-5.14,21.91,21.91,0,0,1,9.31-1.87,27.1,27.1,0,0,1,7.18.92,17.64,17.64,0,0,1,5.92,2.82,15.64,15.64,0,0,1,4.22,4.83,17.85,17.85,0,0,1,2.08,6.92h-7.65A11.24,11.24,0,0,0,303.86,29.21Z"/><path class="cls-1" d="M362.14,66.18a10.36,10.36,0,0,1-5.3,1.13,6.33,6.33,0,0,1-4.57-1.61q-1.69-1.61-1.7-5.26a17.6,17.6,0,0,1-7.09,5.26,23.26,23.26,0,0,1-8.74,1.61,23.67,23.67,0,0,1-5.79-.69,13.6,13.6,0,0,1-4.74-2.18A10.34,10.34,0,0,1,321,60.57a12.9,12.9,0,0,1-1.18-5.78,13.23,13.23,0,0,1,1.31-6.27,11.46,11.46,0,0,1,3.43-4,15.81,15.81,0,0,1,4.88-2.3q2.73-.78,5.61-1.31c2-.4,4-.71,5.78-.91a31.4,31.4,0,0,0,4.83-.87A8.23,8.23,0,0,0,349,37.52a4.06,4.06,0,0,0,1.22-3.18,7.35,7.35,0,0,0-.92-3.91A6.31,6.31,0,0,0,347,28.16a9.45,9.45,0,0,0-3.22-1,24.85,24.85,0,0,0-3.52-.26,15.64,15.64,0,0,0-7.83,1.78q-3.13,1.78-3.39,6.74h-7.4a16.05,16.05,0,0,1,1.74-7,13.24,13.24,0,0,1,4.18-4.66,17.4,17.4,0,0,1,6-2.56,31,31,0,0,1,7.18-.79,42,42,0,0,1,6,.44,15.77,15.77,0,0,1,5.44,1.78,10.32,10.32,0,0,1,3.91,3.77,12,12,0,0,1,1.48,6.34V55.75a16.72,16.72,0,0,0,.31,3.82c.2.81.88,1.22,2,1.22a9,9,0,0,0,2.26-.35Zm-12-23.05a9.19,9.19,0,0,1-3.66,1.51q-2.25.48-4.74.78c-1.65.2-3.32.44-5,.7a18.3,18.3,0,0,0-4.52,1.25A8.21,8.21,0,0,0,329,49.84a6.88,6.88,0,0,0-1.26,4.37,6,6,0,0,0,.74,3.07,6.06,6.06,0,0,0,1.92,2,7.94,7.94,0,0,0,2.74,1.12,15.25,15.25,0,0,0,3.3.35,17.47,17.47,0,0,0,6.27-1,13.09,13.09,0,0,0,4.26-2.51A10,10,0,0,0,349.36,54a8.28,8.28,0,0,0,.78-3.33Z"/><path class="cls-1" d="M400.05,66.36V60.27h-.17a10.91,10.91,0,0,1-5.75,5.39,22,22,0,0,1-8.61,1.65,20.36,20.36,0,0,1-9.09-1.91A18.83,18.83,0,0,1,370,60.27a22.38,22.38,0,0,1-3.87-7.49,30.68,30.68,0,0,1-1.31-9,31.42,31.42,0,0,1,1.27-9.05,21.34,21.34,0,0,1,3.82-7.44,18.5,18.5,0,0,1,6.44-5.05,20.57,20.57,0,0,1,9-1.87,22.17,22.17,0,0,1,3.74.35,19.12,19.12,0,0,1,4,1.18A17,17,0,0,1,396.87,24a12.12,12.12,0,0,1,3,3.35h.17V4.24h7.39V66.36Zm-26.58-16A16.5,16.5,0,0,0,376,55.74a12.22,12.22,0,0,0,4.35,3.74,13.21,13.21,0,0,0,6.22,1.4,12.18,12.18,0,0,0,10.62-5.36,16.08,16.08,0,0,0,2.39-5.43,26.37,26.37,0,0,0,0-12.57,15.76,15.76,0,0,0-2.48-5.44,12.66,12.66,0,0,0-4.4-3.79,13.77,13.77,0,0,0-6.52-1.43,12.64,12.64,0,0,0-6.35,1.48,11.81,11.81,0,0,0-4.18,3.91,17.08,17.08,0,0,0-2.26,5.57,29.83,29.83,0,0,0-.7,6.44A23,23,0,0,0,373.47,50.39Z"/><path class="cls-1" d="M449,63.49q-5.06,3.83-12.7,3.82a23.13,23.13,0,0,1-9.36-1.74,18.48,18.48,0,0,1-6.65-4.87,20.7,20.7,0,0,1-4.05-7.48,36.17,36.17,0,0,1-1.52-9.48,27,27,0,0,1,1.57-9.4A22.38,22.38,0,0,1,420.64,27a20,20,0,0,1,6.7-4.88,20.45,20.45,0,0,1,8.48-1.74,18.48,18.48,0,0,1,10,2.48,19.73,19.73,0,0,1,6.35,6.31,24.88,24.88,0,0,1,3.31,8.35,35.61,35.61,0,0,1,.74,8.62H422.51a17.86,17.86,0,0,0,.7,5.61,12.73,12.73,0,0,0,2.52,4.7,12.45,12.45,0,0,0,4.44,3.26,15.31,15.31,0,0,0,6.35,1.22,12.8,12.8,0,0,0,7.7-2.18,10.52,10.52,0,0,0,4-6.61h7.3Q454,59.65,449,63.49ZM447.18,34.6a12.56,12.56,0,0,0-6.7-6.74,12.63,12.63,0,0,0-5.09-1,12.83,12.83,0,0,0-5.18,1,12,12,0,0,0-4,2.74,13.17,13.17,0,0,0-2.61,4,15.38,15.38,0,0,0-1.13,4.91h25.84A15.44,15.44,0,0,0,447.18,34.6Z"/><path class="cls-1" d="M469.72,21.38V28h.18q5-7.65,14.53-7.66A16.35,16.35,0,0,1,492,22.07,9.77,9.77,0,0,1,496.78,28a15.78,15.78,0,0,1,6-5.66,16.89,16.89,0,0,1,8.14-2,23.68,23.68,0,0,1,6.13.74,12.77,12.77,0,0,1,4.7,2.31,10.42,10.42,0,0,1,3,4,14.72,14.72,0,0,1,1.09,6v33h-7.4V36.86A21.08,21.08,0,0,0,518.1,33a8.1,8.1,0,0,0-1.31-3.18,6.5,6.5,0,0,0-2.65-2.13,10.61,10.61,0,0,0-4.4-.78q-5.48,0-8.61,3.13A11.28,11.28,0,0,0,498,38.34v28h-7.39V36.86a19.15,19.15,0,0,0-.4-4,8.41,8.41,0,0,0-1.35-3.17,6.22,6.22,0,0,0-2.56-2.09,10,10,0,0,0-4.13-.74,11.06,11.06,0,0,0-5.53,1.3,12.6,12.6,0,0,0-5.83,6.92,10.83,10.83,0,0,0-.65,3.26v28h-7.4v-45Z"/><path class="cls-1" d="M535.48,13.29v-9h7.39v9Zm7.39,8.09v45h-7.39v-45Z"/><path class="cls-1" d="M579.75,29.21a11.19,11.19,0,0,0-7.48-2.35,13.75,13.75,0,0,0-6.7,1.48,12,12,0,0,0-4.31,3.91,16.54,16.54,0,0,0-2.3,5.61,30.27,30.27,0,0,0-.7,6.57,25.14,25.14,0,0,0,.74,6.09,16.13,16.13,0,0,0,2.31,5.27,11.55,11.55,0,0,0,4.09,3.69,12.21,12.21,0,0,0,6,1.4q5.48,0,8.57-2.88a12.92,12.92,0,0,0,3.78-8.09h7.57q-1.22,8.36-6.22,12.88t-13.61,4.52a23.4,23.4,0,0,1-9.09-1.65,17.64,17.64,0,0,1-6.62-4.7,20.32,20.32,0,0,1-4-7.26,30.26,30.26,0,0,1-1.35-9.27A33,33,0,0,1,551.74,35a21.82,21.82,0,0,1,4-7.65,18.55,18.55,0,0,1,6.65-5.14,21.88,21.88,0,0,1,9.31-1.87,27.15,27.15,0,0,1,7.18.92,17.73,17.73,0,0,1,5.92,2.82A15.48,15.48,0,0,1,589,28.9a17.69,17.69,0,0,1,2.09,6.92h-7.65A11.24,11.24,0,0,0,579.75,29.21Z"/><path class="cls-1" d="M633.6,4.24V66.36h-8.26V4.24Z"/><path class="cls-1" d="M651.24,21.38v7.13h.17Q656,20.33,666,20.33a19.51,19.51,0,0,1,7.39,1.22,12.28,12.28,0,0,1,4.79,3.39,12.61,12.61,0,0,1,2.56,5.18,27.49,27.49,0,0,1,.74,6.66V66.36h-7.39V35.91a8.93,8.93,0,0,0-2.44-6.62,9,9,0,0,0-6.7-2.43,15.17,15.17,0,0,0-5.87,1,11.13,11.13,0,0,0-4.13,3,12.8,12.8,0,0,0-2.48,4.48,18.24,18.24,0,0,0-.83,5.61V66.36h-7.39v-45Z"/><path class="cls-1" d="M697.84,21.38v7.13H698q4.61-8.18,14.62-8.18A19.55,19.55,0,0,1,720,21.55a12.28,12.28,0,0,1,4.79,3.39,12.74,12.74,0,0,1,2.56,5.18,28,28,0,0,1,.74,6.66V66.36h-7.39V35.91a9,9,0,0,0-2.44-6.62,9.06,9.06,0,0,0-6.7-2.43,15.17,15.17,0,0,0-5.87,1,11.13,11.13,0,0,0-4.13,3,12.65,12.65,0,0,0-2.48,4.48,18.24,18.24,0,0,0-.83,5.61V66.36h-7.39v-45Z"/><path class="cls-1" d="M736.46,34.65a21,21,0,0,1,4.18-7.49,19.77,19.77,0,0,1,6.87-5,25.16,25.16,0,0,1,18.84,0,20,20,0,0,1,6.83,5,21.09,21.09,0,0,1,4.17,7.49,29.84,29.84,0,0,1,1.4,9.26,29.45,29.45,0,0,1-1.4,9.22,21.12,21.12,0,0,1-4.17,7.44,19.38,19.38,0,0,1-6.83,5,25.82,25.82,0,0,1-18.84,0,19.18,19.18,0,0,1-6.87-5,21,21,0,0,1-4.18-7.44,29.45,29.45,0,0,1-1.39-9.22A29.84,29.84,0,0,1,736.46,34.65ZM744,51.17a15,15,0,0,0,3,5.31,13,13,0,0,0,4.48,3.26,13.55,13.55,0,0,0,10.88,0,13,13,0,0,0,4.48-3.26,15.35,15.35,0,0,0,3-5.31,22.43,22.43,0,0,0,1.09-7.26,22.48,22.48,0,0,0-1.09-7.26,15.83,15.83,0,0,0-3-5.35A12.79,12.79,0,0,0,762.35,28a13.66,13.66,0,0,0-10.88,0A12.79,12.79,0,0,0,747,31.3a15.5,15.5,0,0,0-3,5.35,22.21,22.21,0,0,0-1.09,7.26A22.17,22.17,0,0,0,744,51.17Z"/><path class="cls-1" d="M796.25,66.36l-16.71-45h8.27l12.61,37.49h.18l12.27-37.49h7.74l-16.44,45Z"/><path class="cls-1" d="M863.92,66.18a10.43,10.43,0,0,1-5.31,1.13A6.34,6.34,0,0,1,854,65.7q-1.69-1.61-1.69-5.26a17.66,17.66,0,0,1-7.09,5.26,24.57,24.57,0,0,1-14.53.92A13.43,13.43,0,0,1,826,64.44a10.27,10.27,0,0,1-3.18-3.87,13,13,0,0,1-1.18-5.78,13.23,13.23,0,0,1,1.31-6.27,11.39,11.39,0,0,1,3.44-4,15.75,15.75,0,0,1,4.87-2.3q2.75-.78,5.61-1.31c2-.4,4-.71,5.79-.91a31.48,31.48,0,0,0,4.82-.87,8.1,8.1,0,0,0,3.31-1.65A4.06,4.06,0,0,0,852,34.34a7.35,7.35,0,0,0-.92-3.91,6.28,6.28,0,0,0-2.34-2.27,9.6,9.6,0,0,0-3.22-1,25,25,0,0,0-3.53-.26,15.64,15.64,0,0,0-7.83,1.78q-3.13,1.78-3.39,6.74h-7.39a15.92,15.92,0,0,1,1.73-7,13.24,13.24,0,0,1,4.18-4.66,17.48,17.48,0,0,1,6-2.56,31,31,0,0,1,7.18-.79,42,42,0,0,1,6,.44,15.7,15.7,0,0,1,5.44,1.78,10.35,10.35,0,0,1,3.92,3.77,12.14,12.14,0,0,1,1.48,6.34V55.75a17.46,17.46,0,0,0,.3,3.82c.2.81.88,1.22,2,1.22a9.12,9.12,0,0,0,2.27-.35Zm-12-23.05a9.2,9.2,0,0,1-3.65,1.51q-2.26.48-4.74.78c-1.66.2-3.33.44-5,.7A18.3,18.3,0,0,0,834,47.37a8.18,8.18,0,0,0-3.26,2.47,6.82,6.82,0,0,0-1.26,4.37,6,6,0,0,0,.73,3.07,6.26,6.26,0,0,0,1.92,2,8,8,0,0,0,2.74,1.12,15.27,15.27,0,0,0,3.31.35,17.45,17.45,0,0,0,6.26-1,13.09,13.09,0,0,0,4.26-2.51A9.85,9.85,0,0,0,851.13,54a8.28,8.28,0,0,0,.78-3.33Z"/><path class="cls-1" d="M888,21.38V27.9h-9V55.83a7.85,7.85,0,0,0,.22,2.09,2.16,2.16,0,0,0,.82,1.22,3.7,3.7,0,0,0,1.7.56,24.11,24.11,0,0,0,2.83.13H888v6.53h-5.65a25.71,25.71,0,0,1-4.92-.4,7.24,7.24,0,0,1-3.31-1.43,6.18,6.18,0,0,1-1.87-3,17.3,17.3,0,0,1-.6-5V27.9H864V21.38h7.66V7.89h7.39V21.38Z"/><path class="cls-1" d="M894.43,13.29v-9h7.4v9Zm7.4,8.09v45h-7.4v-45Z"/><path class="cls-1" d="M910.64,34.65a21,21,0,0,1,4.18-7.49,19.67,19.67,0,0,1,6.87-5,25.16,25.16,0,0,1,18.84,0,19.85,19.85,0,0,1,6.82,5,21,21,0,0,1,4.18,7.49,29.84,29.84,0,0,1,1.39,9.26,29.45,29.45,0,0,1-1.39,9.22,21,21,0,0,1-4.18,7.44,19.25,19.25,0,0,1-6.82,5,25.82,25.82,0,0,1-18.84,0,19.09,19.09,0,0,1-6.87-5,21,21,0,0,1-4.18-7.44,29.45,29.45,0,0,1-1.39-9.22A29.84,29.84,0,0,1,910.64,34.65Zm7.53,16.52a15,15,0,0,0,3,5.31,12.93,12.93,0,0,0,4.48,3.26,13.53,13.53,0,0,0,10.87,0A12.93,12.93,0,0,0,941,56.48a15.21,15.21,0,0,0,3-5.31,22.44,22.44,0,0,0,1.08-7.26A22.49,22.49,0,0,0,944,36.65a15.68,15.68,0,0,0-3-5.35A12.7,12.7,0,0,0,936.52,28a13.64,13.64,0,0,0-10.87,0,12.7,12.7,0,0,0-4.48,3.31,15.5,15.5,0,0,0-3,5.35,22.21,22.21,0,0,0-1.09,7.26A22.17,22.17,0,0,0,918.17,51.17Z"/><path class="cls-1" d="M967.05,21.38v7.13h.18q4.6-8.18,14.61-8.18a19.6,19.6,0,0,1,7.4,1.22A12.24,12.24,0,0,1,994,24.94a12.75,12.75,0,0,1,2.57,5.18,28,28,0,0,1,.74,6.66V66.36h-7.4V35.91a9,9,0,0,0-2.43-6.62,9.08,9.08,0,0,0-6.7-2.43,15.26,15.26,0,0,0-5.88,1,11.13,11.13,0,0,0-4.13,3,12.8,12.8,0,0,0-2.48,4.48,18.24,18.24,0,0,0-.82,5.61V66.36h-7.4v-45Z"/></g></g></svg>