<svg id="Layer_1" data-name="Layer 1" xmlns="http://www.w3.org/2000/svg" viewBox="0 0 5000 5000"><defs><style>.cls-1{fill:#333;}</style></defs><path class="cls-1" d="M4601.54,2199.9c0-541.57-639.07-980.6-1427.4-980.6-380.15,0-725.58,102.09-981.39,268.54,433.47,99.54,860.37,366.17,985.71,787,89.57,300.73,3.55,630-271.4,888.56a2090,2090,0,0,0,510.63,2.93l733.46,459.36-122.64-640.13C4376.39,2806.68,4601.54,2521.36,4601.54,2199.9Z"/><path class="cls-1" d="M2855.22,1964c-534.15-543.16-1682-544-2217,0C242,2366.92,343.2,2931.56,900.46,3247.69L796.28,3884.28l751-437.41c231.51,24,479.91,7,715.39-61.38C3065.46,3152.23,3338.94,2455.89,2855.22,1964ZM1539.4,3287.85l-26.08-3.08-508.09,295.92,68.62-419.27L1023,3135.27c-296.7-152.53-466.87-381.66-466.87-628.66,0-467.67,627.6-859.68,1371-784.28,556.46,56.44,1010.2,381.56,1010.2,784.28C2937.36,2980.51,2291.6,3376.69,1539.4,3287.85Z"/><path class="cls-1" d="M1833.29,2745.92H1648.23q-.74-39.91-.73-48.63,0-90,29.76-148.05t119-130.63q89.27-72.56,106.68-95.07,26.83-35.55,26.85-78.37,0-59.51-47.53-102t-128.09-42.45q-77.67,0-129.91,44.27t-71.85,135l-187.23-23.22q8-129.9,110.67-220.62t269.61-90.72q175.62,0,279.4,91.81T2128.66,2251q0,67.5-38.1,127.73t-162.93,164q-64.59,53.72-80.19,86.36T1833.29,2745.92Z"/><rect class="cls-1" x="1619.31" y="2829.07" width="256.06" height="256.06" rx="128.03"/></svg>